<svg width="180" height="63" viewBox="0 0 180 63" fill="none" xmlns="http://www.w3.org/2000/svg">
<rect y="0.666733" width="180" height="54.6666" rx="5" fill="#E9ECEF"/>
<g filter="url(#filter0_d)">
<path d="M15.0096 45V20.64H45.2076C46.8036 20.64 48.1616 21.214 49.2816 22.362C50.4296 23.482 51.0036 24.84 51.0036 26.436V45H45.5436V27.612C45.5436 26.828 45.4876 26.394 45.3756 26.31C45.2636 26.198 44.8296 26.142 44.0736 26.142H37.2696C36.4856 26.142 36.0376 26.198 35.9256 26.31C35.8416 26.394 35.7996 26.828 35.7996 27.612V45H30.2556V27.612C30.2556 26.828 30.1996 26.394 30.0876 26.31C30.0036 26.198 29.5696 26.142 28.7856 26.142H21.9816C21.1976 26.142 20.7496 26.198 20.6376 26.31C20.5536 26.394 20.5116 26.828 20.5116 27.612V45H15.0096ZM59.6362 54.03V48.486H73.3702C74.1262 48.486 74.5462 48.43 74.6302 48.318C74.7422 48.234 74.7982 47.8 74.7982 47.016V45H61.3582C59.7622 45 58.3902 44.44 57.2422 43.32C56.1222 42.172 55.5622 40.8 55.5622 39.204V20.724H61.0642V38.028C61.0642 38.812 61.1062 39.26 61.1902 39.372C61.3022 39.456 61.7502 39.498 62.5342 39.498H73.3702C74.1262 39.498 74.5462 39.456 74.6302 39.372C74.7422 39.26 74.7982 38.812 74.7982 38.028V20.724H80.3002V48.234C80.3002 49.83 79.7402 51.188 78.6202 52.308C77.5002 53.456 76.1422 54.03 74.5462 54.03H59.6362ZM84.9862 45V14.76H112.832V20.346H90.5722V27.066H108.464V32.652H90.5722V45H84.9862ZM120.882 45C119.286 45 117.914 44.44 116.766 43.32C115.646 42.172 115.086 40.8 115.086 39.204V12.618H120.63V38.028C120.63 38.812 120.672 39.26 120.756 39.372C120.868 39.456 121.302 39.498 122.058 39.498H125.796V45H120.882ZM129.687 45V20.64H135.189V45H129.687ZM129.687 18.204V12.66H135.189V18.204H129.687ZM138.787 45V43.53L147.733 32.61L138.787 22.11V20.64H144.751L151.303 28.368L157.855 20.64H163.819V22.11L154.873 32.61L163.819 43.53V45H157.897L151.303 36.936L144.751 45H138.787Z" fill="#FF270A"/>
</g>
<defs>
<filter id="filter0_d" x="11.0096" y="12.618" width="156.809" height="49.412" filterUnits="userSpaceOnUse" color-interpolation-filters="sRGB">
<feFlood flood-opacity="0" result="BackgroundImageFix"/>
<feColorMatrix in="SourceAlpha" type="matrix" values="0 0 0 0 0 0 0 0 0 0 0 0 0 0 0 0 0 0 127 0"/>
<feOffset dy="4"/>
<feGaussianBlur stdDeviation="2"/>
<feColorMatrix type="matrix" values="0 0 0 0 0 0 0 0 0 0 0 0 0 0 0 0 0 0 0.25 0"/>
<feBlend mode="normal" in2="BackgroundImageFix" result="effect1_dropShadow"/>
<feBlend mode="normal" in="SourceGraphic" in2="effect1_dropShadow" result="shape"/>
</filter>
</defs>
</svg>
